<svg width="123" height="93" viewBox="0 0 123 93" fill="none" xmlns="http://www.w3.org/2000/svg">
<g clip-path="url(#clip0_540_66)">
<path fill-rule="evenodd" clip-rule="evenodd" d="M106.97 92.81H84.8899C76.3899 92.81 69.4399 85.86 69.4399 77.36C69.4399 45.57 61.3199 10.65 100.28 0.679967C117.93 -3.83003 122.53 15.61 103.76 16.95C92.3099 17.77 90.0699 25.17 89.7199 36.35H107.43C115.93 36.35 122.88 43.3 122.88 51.8V76.89C122.88 85.65 115.72 92.81 106.97 92.81ZM38.2299 92.81H16.1499C7.6499 92.81 0.699899 85.86 0.699899 77.36C0.699899 45.57 -7.4201 10.65 31.5399 0.679967C49.1999 -3.84003 53.7999 15.6 35.0199 16.95C23.5699 17.77 21.3299 25.17 20.9799 36.35H38.6999C47.1999 36.35 54.1499 43.3 54.1499 51.8V76.89C54.1399 85.65 46.9799 92.81 38.2299 92.81Z" fill="#EAD917"/>
</g>
<defs>
<clipPath id="clip0_540_66">
<rect width="122.88" height="92.81" fill="white"/>
</clipPath>
</defs>
</svg>
